<?xml version='1.0' encoding='utf-8'?>
<svg xmlns="http://www.w3.org/2000/svg" xmlns:xlink="http://www.w3.org/1999/xlink" width="3229.62" height="1533.6836363636362" viewBox="-105.31000000000003 -198.31000000000003 3229.62 1533.6836363636362">
  <defs>
    <g id="subtitle-shape" fill="currentColor" transform="translate(74.677273 1133.636364) scale(0.263636364 -0.263636364)">
<path d="M62 203V216H213V203C213 175 234 156 267 144C299 132 340 128 368 128C401 128 441 131 473 143C504 155 524 174 524 206C524 233 503 248 468 256C450 261 431 263 413 264C394 265 377 265 363 265C220 265 74 291 74 459C74 623 220 670 368 670C508 670 663 608 663 455V441H512V455C512 482 493 501 464 513C434 525 397 530 368 530C338 530 301 527 272 516C244 506 226 488 226 459C226 434 245 420 278 413C294 409 312 407 329 406C346 405 363 405 375 405C522 405 676 379 676 206C676 36 522 -13 368 -13C230 -13 62 46 62 203Z" transform="translate(0.000000 0)" />
<path d="M292 517H49V657H687V517H444V0H292Z" transform="translate(1503.408867 0)" />
<path d="M93 657H245V0H93Z" transform="translate(3005.817734 0)" />
<path d="M93 657H245V140H609V0H93Z" transform="translate(4109.226601 0)" />
<path d="M93 657H719V517H245V399H597V259H245V140H719V0H93Z" transform="translate(5534.635468 0)" />
<path d="M292 517H49V657H687V517H444V0H292Z" transform="translate(7094.044335 0)" />
<path d="M292 517H49V657H687V517H444V0H292Z" transform="translate(8596.453202 0)" />
<path d="M62 329C62 503 182 670 393 670C604 670 724 503 724 329C724 155 604 -13 393 -13C182 -13 62 155 62 329ZM567 329C567 427 506 524 393 524C280 524 220 427 220 329C220 230 281 135 393 135C505 135 567 230 567 329Z" transform="translate(10098.862069 0)" />
</g>
    
    <mask id="subtitle-thin" maskUnits="userSpaceOnUse" x="-105.31000000000003" y="-198.31000000000003" width="3229.62" height="1533.6836363636362">
      <rect x="-105.31000000000003" y="-198.31000000000003" width="3229.62" height="1533.6836363636362" fill="#000" />
      <use xlink:href="#subtitle-shape" color="#fff" fill="#fff" stroke="#000" stroke-width="15" stroke-linejoin="round" />
    </mask>
  </defs>
  
  <g color="#000000" fill="#000000" stroke="none">
    <g fill="currentColor" transform="translate(0.000000 657.000000) scale(1.000000000 -1.000000000)">
<path d="M93 0V657H510C641 657 707 561 707 455C707 413 691 371 660 339C708 306 731 256 731 203C731 96 665 0 533 0ZM245 399H510C539 399 555 420 555 449V467C555 497 539 517 510 517H245ZM245 140H533C562 140 580 161 580 190V209C580 239 562 259 533 259H245Z" transform="translate(0.000000 0)" />
<path d="M93 657H719V517H245V399H597V259H245V140H719V0H93Z" transform="translate(735.000000 0)" />
<path d="M93 657H412C618 657 743 503 743 329C743 155 617 0 412 0H93ZM412 140C523 140 586 231 586 329C586 426 523 517 412 517H245V140Z" transform="translate(1465.000000 0)" />
<path d="M93 657H719V517H245V399H597V259H245V140H719V0H93Z" transform="translate(2207.000000 0)" />
<path d="M2477 705 L2613 841 L2749 705 L2691 705 L2613 783 L2535 705 Z" /></g>
    <g mask="url(#subtitle-thin)"><use xlink:href="#subtitle-shape" /></g>
  </g>
</svg>